<?xml version="1.0" ?><!-- Uploaded to: SVG Repo, www.svgrepo.com, Generator: SVG Repo Mixer Tools -->
<svg width="800px" height="800px" viewBox="0 0 2050 2050" data-name="Layer 3" id="Layer_3" xmlns="http://www.w3.org/2000/svg"><defs><style>.cls-1{fill:#9ae0f9;}.cls-2{fill:#e0e1e2;}.cls-3{fill:#1682fc;}.cls-4{fill:#2e3a58;}</style></defs><title/><rect class="cls-1" height="24.79" width="30.6" x="958.2" y="1413.1"/><rect class="cls-1" height="57.02" width="30.6" x="658.6" y="1413.1"/><path class="cls-2" d="M585.4,1337.1a92.1,92.1,0,0,1-92-92.1V460a111,111,0,0,0-42.5,87.4v720.8A111,111,0,0,0,562,1379.3h71.9v90.8h55.3v-90.8H896.5v58.6h92.3v-58.6H1061a110.8,110.8,0,0,0,87.2-42.2Z"/><path class="cls-3" d="M1049,1309.7H989a5,5,0,1,1,0-10h60a42.2,42.2,0,0,0,7.9-.7,5,5,0,1,1,1.7,9.8A51.2,51.2,0,0,1,1049,1309.7Zm-120,0H869a5,5,0,1,1,0-10h60a5,5,0,0,1,0,10Zm-120,0H749a5,5,0,1,1,0-10h60a5,5,0,0,1,0,10Zm-120,0H629a5,5,0,0,1,0-10h60a5,5,0,0,1,0,10Zm-120-.3h-.5a53.7,53.7,0,0,1-46.7-40.8,5.1,5.1,0,0,1,3.7-6.1,5,5,0,0,1,6,3.7,43.8,43.8,0,0,0,38,33.3,4.9,4.9,0,0,1,4.5,5.4A5,5,0,0,1,569,1309.4Zm528.1-40.7h-.8a4.9,4.9,0,0,1-4.1-5.7,53.4,53.4,0,0,0,.5-6.9v-52.3a5,5,0,0,1,10,0V1256a48.8,48.8,0,0,1-.7,8.5A5,5,0,0,1,1097.1,1268.7Zm-571.8-56.2a5,5,0,0,1-5-5v-60a5.1,5.1,0,0,1,5-5,5,5,0,0,1,5,5v60A5,5,0,0,1,525.3,1212.5Zm572.4-63.8a5,5,0,0,1-5-5v-60a5,5,0,0,1,10,0v60A5,5,0,0,1,1097.7,1148.7Zm-572.4-56.2a5,5,0,0,1-5-5v-60a5.1,5.1,0,0,1,5-5,5,5,0,0,1,5,5v60A5,5,0,0,1,525.3,1092.5Zm572.4-63.8a5,5,0,0,1-5-5v-60a5,5,0,0,1,10,0v60A5,5,0,0,1,1097.7,1028.7ZM525.3,972.5a5,5,0,0,1-5-5v-60a5.1,5.1,0,0,1,5-5,5,5,0,0,1,5,5v60A5,5,0,0,1,525.3,972.5Zm572.4-63.8a5,5,0,0,1-5-5v-60a5,5,0,0,1,10,0v60A5,5,0,0,1,1097.7,908.7ZM525.3,852.5a5,5,0,0,1-5-5v-60a5.1,5.1,0,0,1,5-5,5,5,0,0,1,5,5v60A5,5,0,0,1,525.3,852.5Zm572.4-63.8a5,5,0,0,1-5-5v-60a5,5,0,0,1,10,0v60A5,5,0,0,1,1097.7,788.7ZM525.3,732.5a5,5,0,0,1-5-5v-60a5.1,5.1,0,0,1,5-5,5,5,0,0,1,5,5v60A5,5,0,0,1,525.3,732.5Zm572.4-63.8a5,5,0,0,1-5-5v-60a5,5,0,0,1,10,0v60A5,5,0,0,1,1097.7,668.7ZM525.3,612.5a5,5,0,0,1-5-5V559.6a53.7,53.7,0,0,1,1.7-13.2,4.8,4.8,0,0,1,6-3.6,5,5,0,0,1,3.6,6.1,48.2,48.2,0,0,0-1.3,10.7v47.9A5,5,0,0,1,525.3,612.5ZM1095.1,549a4.9,4.9,0,0,1-4.7-3.4,43.9,43.9,0,0,0-40.9-29.7,5,5,0,0,1,.1-10h.1a53.9,53.9,0,0,1,50.2,36.5,4.9,4.9,0,0,1-3.2,6.3A4.1,4.1,0,0,1,1095.1,549ZM569.6,516.1a5,5,0,0,1-.4-9.9,38.7,38.7,0,0,1,4.8-.3h55.6a5,5,0,0,1,5,5,5,5,0,0,1-5,5H574l-3.9.2Zm420-.2h-60a5,5,0,0,1-5-5,5,5,0,0,1,5-5h60a5,5,0,0,1,5,5A5,5,0,0,1,989.6,515.9Zm-120,0h-60a5,5,0,0,1-5-5,5,5,0,0,1,5-5h60a5,5,0,0,1,5,5A5,5,0,0,1,869.6,515.9Zm-120,0h-60a5,5,0,0,1-5-5,5,5,0,0,1,5-5h60a5,5,0,0,1,5,5A5,5,0,0,1,749.6,515.9Z"/><rect class="cls-3" height="30" width="88.4" x="746.5" y="802.5"/><path class="cls-3" d="M744.9,873.3l47.8-124,47.8,124h32.2l-66-171.2a15,15,0,0,0-28,0L712.8,873.3Z"/><rect class="cls-3" height="75.19" width="30" x="857.7" y="670.3"/><rect class="cls-3" height="30" width="75.2" x="835.1" y="692.9"/><rect class="cls-3" height="30" width="358" x="641.3" y="909.3"/><rect class="cls-3" height="30" width="170.2" x="641.3" y="1003.3"/><rect class="cls-3" height="30" width="279.3" x="641.3" y="1097.3"/><rect class="cls-3" height="30" width="157.4" x="841.9" y="1003.3"/><path class="cls-4" d="M689.2,1485.1H633.9a15,15,0,0,1-15-15v-75.8H562c-69.5,0-126.1-56.6-126.1-126.1V547.4c0-69.5,56.6-126.1,126.1-126.1h499c69.5,0,126.1,56.6,126.1,126.1v720.8c0,69.5-56.6,126.1-126.1,126.1h-57.2v43.6a15,15,0,0,1-15,15H896.5a15,15,0,0,1-15-15v-43.6H704.2v75.8A15,15,0,0,1,689.2,1485.1Zm-40.3-30h25.3v-75.8a15,15,0,0,1,15-15H896.5a15,15,0,0,1,15,15v43.6h62.3v-43.6a15,15,0,0,1,15-15H1061a96.2,96.2,0,0,0,96.1-96.1V547.4a96.2,96.2,0,0,0-96.1-96.1H562a96.2,96.2,0,0,0-96.1,96.1v720.8a96.2,96.2,0,0,0,96.1,96.1h71.9a15,15,0,0,1,15,15Z"/><path class="cls-4" d="M1398.4,1622.8H1010.7a84.1,84.1,0,0,1-84.1-84V1437.9h30v100.9a54.1,54.1,0,0,0,54.1,54h387.7a54,54,0,0,0,54-54V817.5h30v721.3A84.1,84.1,0,0,1,1398.4,1622.8Z"/><path class="cls-2" d="M1505.9,647.7h-47.6a24.4,24.4,0,0,1,24.5,24.4V796.6a24.5,24.5,0,0,1-24.5,24.5h47.6a24.5,24.5,0,0,0,24.4-24.5V672.1A24.4,24.4,0,0,0,1505.9,647.7Z"/><rect class="cls-2" height="59.96" width="63.9" x="1435.4" y="587.7"/><path class="cls-3" d="M1505.9,836.1H1429a39.5,39.5,0,0,1-39.5-39.5V672.1a39.5,39.5,0,0,1,39.5-39.4h76.9a39.5,39.5,0,0,1,39.4,39.4V796.6A39.5,39.5,0,0,1,1505.9,836.1ZM1429,662.7a9.4,9.4,0,0,0-9.5,9.4V796.6a9.4,9.4,0,0,0,9.5,9.5h76.9a9.4,9.4,0,0,0,9.4-9.5V672.1a9.4,9.4,0,0,0-9.4-9.4Z"/><path class="cls-3" d="M1499.4,662.7h-64a15,15,0,0,1-15-15v-60a15,15,0,0,1,15-15h64a15,15,0,0,1,15,15v60A15,15,0,0,1,1499.4,662.7Zm-49-30h34v-30h-34Z"/><rect class="cls-3" height="95.83" width="30" x="1452.4" y="491.9"/></svg>