<?xml version="1.0" encoding="iso-8859-1"?>
<!-- Uploaded to: SVG Repo, www.svgrepo.com, Generator: SVG Repo Mixer Tools -->
<svg version="1.1" id="Layer_1" xmlns="http://www.w3.org/2000/svg" xmlns:xlink="http://www.w3.org/1999/xlink" 
	 viewBox="0 0 164.134 164.134" xml:space="preserve">
<g>
	<circle style="fill:#353B5A;" cx="82.067" cy="82.067" r="82.067"/>
	<g style="opacity:0.8;">
		<g>
			<path style="fill:#BABCBE;" d="M69.429,67.638v-0.609c0-0.602-0.16-1.109-0.481-1.521c-0.32-0.413-0.775-0.619-1.364-0.619
				c-0.59,0-1.045,0.206-1.365,0.619c-0.321,0.412-0.481,0.92-0.481,1.521v4.91c0.852-0.76,1.787-1.14,2.809-1.14
				c1.637,0,2.86,0.569,3.673,1.709c0.72,0.995,1.08,2.376,1.08,4.144v4.223h-0.021c-0.078,1.57-0.645,2.887-1.698,3.947
				c-1.054,1.06-2.347,1.59-3.879,1.59c-1.637,0-2.984-0.582-4.045-1.747c-1.034-1.126-1.552-2.501-1.552-4.124V67.107
				c0-1.205,0.291-2.291,0.874-3.261c0.582-0.968,1.41-1.688,2.484-2.16c0.681-0.313,1.427-0.471,2.238-0.471
				c1.624,0,2.973,0.589,4.046,1.768c1.034,1.126,1.552,2.501,1.552,4.124v0.53L69.429,67.638L69.429,67.638z M65.736,80.48
				c0,0.603,0.151,1.1,0.454,1.493c0.329,0.432,0.79,0.647,1.383,0.647c0.592,0,1.053-0.216,1.382-0.647
				c0.315-0.394,0.474-0.891,0.474-1.493v-4.556c0-0.707-0.264-1.296-0.79-1.768c-0.25-0.223-0.599-0.334-1.046-0.334
				c-0.646,0-1.132,0.256-1.461,0.766c-0.264,0.42-0.396,0.884-0.396,1.395C65.736,75.983,65.736,80.48,65.736,80.48z"/>
			<path style="fill:#BABCBE;" d="M75.85,82.464h3.712v3.712H75.85V82.464z"/>
			<path style="fill:#BABCBE;" d="M82.173,68.481c0-2.33,0.629-4.11,1.886-5.341c1.087-1.087,2.514-1.631,4.281-1.631
				c1.623,0,3.008,0.609,4.153,1.827c1.146,1.217,1.719,2.638,1.719,4.261c0,1.677-0.373,3.293-1.12,4.851
				c-0.405,0.864-1.354,2.351-2.848,4.458c-0.405,0.576-1.008,1.474-1.807,2.69l-0.667,1.003c-0.433,0.655-0.76,1.172-0.982,1.552
				c-0.104,0.194-0.157,0.312-0.157,0.354h7.286v3.633H82.114v-3.404c0-0.079,0.271-0.531,0.811-1.358
				c0.249-0.378,0.532-0.797,0.848-1.254l0.967-1.392c0.563-0.772,1.448-2.009,2.654-3.711c1.14-1.596,1.992-3.042,2.556-4.338
				c0.459-1.061,0.688-2.049,0.688-2.965c0-0.746-0.21-1.381-0.629-1.904c-0.458-0.55-1.048-0.824-1.768-0.824
				c-1.034,0-1.768,0.596-2.199,1.787c-0.145,0.393-0.216,0.864-0.216,1.414v0.942h-3.653V68.481z"/>
		</g>
	</g>
	<g>
		<g>
			<rect x="83.276" y="17.811" style="fill:#FFFFFF;" width="15.347" height="26.682"/>
			<rect x="83.276" y="23.993" style="fill:#F19C35;" width="15.347" height="3.904"/>
		</g>
		<path style="fill:#F19C35;" d="M103.376,37.731h-3.342v4.616c0,0.795-0.669,1.44-1.495,1.44H83.47
			c-0.824,0-1.495-0.645-1.495-1.44v-4.616H52.52c-1.619,0-2.944,1.726-2.944,3.83v90.268c0,2.105,1.325,3.828,2.944,3.828h50.856
			c1.616,0,2.941-1.724,2.941-3.828V41.562C106.317,39.457,104.992,37.731,103.376,37.731z"/>
		<path style="fill:#449F98;" d="M103.449,122.192c0,2.104-1.488,3.826-3.307,3.826H56.005c-1.816,0-3.305-1.722-3.305-3.826V51.906
			c0-2.105,1.488-3.827,3.305-3.827h44.138c1.818,0,3.307,1.722,3.307,3.827L103.449,122.192L103.449,122.192z"/>
		<g>
			<g>
				<path style="fill:#19746D;" d="M69.429,67.638v-0.609c0-0.602-0.16-1.109-0.481-1.521c-0.32-0.413-0.775-0.619-1.364-0.619
					c-0.59,0-1.045,0.206-1.365,0.619c-0.321,0.412-0.481,0.92-0.481,1.521v4.91c0.852-0.76,1.787-1.14,2.809-1.14
					c1.637,0,2.86,0.569,3.673,1.709c0.72,0.995,1.08,2.376,1.08,4.144v4.223h-0.021c-0.078,1.57-0.645,2.887-1.698,3.947
					c-1.054,1.06-2.347,1.59-3.879,1.59c-1.637,0-2.984-0.582-4.045-1.747c-1.034-1.126-1.552-2.501-1.552-4.124V67.107
					c0-1.205,0.291-2.291,0.874-3.261c0.582-0.968,1.41-1.688,2.484-2.16c0.681-0.313,1.427-0.471,2.238-0.471
					c1.624,0,2.973,0.589,4.046,1.768c1.034,1.126,1.552,2.501,1.552,4.124v0.53L69.429,67.638L69.429,67.638z M65.736,80.48
					c0,0.603,0.151,1.1,0.454,1.493c0.329,0.432,0.79,0.647,1.383,0.647c0.592,0,1.053-0.216,1.382-0.647
					c0.315-0.394,0.474-0.891,0.474-1.493v-4.556c0-0.707-0.264-1.296-0.79-1.768c-0.25-0.223-0.599-0.334-1.046-0.334
					c-0.646,0-1.132,0.256-1.461,0.766c-0.264,0.42-0.396,0.884-0.396,1.395C65.736,75.983,65.736,80.48,65.736,80.48z"/>
				<path style="fill:#19746D;" d="M75.85,82.464h3.712v3.712H75.85V82.464z"/>
				<path style="fill:#19746D;" d="M82.173,68.481c0-2.33,0.629-4.11,1.886-5.341c1.087-1.087,2.514-1.631,4.281-1.631
					c1.623,0,3.008,0.609,4.153,1.827c1.146,1.217,1.719,2.638,1.719,4.261c0,1.677-0.373,3.293-1.12,4.851
					c-0.405,0.864-1.354,2.351-2.848,4.458c-0.405,0.576-1.008,1.474-1.807,2.69l-0.667,1.003c-0.433,0.655-0.76,1.172-0.982,1.552
					c-0.104,0.194-0.157,0.312-0.157,0.354h7.286v3.633H82.114v-3.404c0-0.079,0.271-0.531,0.811-1.358
					c0.249-0.378,0.532-0.797,0.848-1.254l0.967-1.392c0.563-0.772,1.448-2.009,2.654-3.711c1.14-1.596,1.992-3.042,2.556-4.338
					c0.459-1.061,0.688-2.049,0.688-2.965c0-0.746-0.21-1.381-0.629-1.904c-0.458-0.55-1.048-0.824-1.768-0.824
					c-1.034,0-1.768,0.596-2.199,1.787c-0.145,0.393-0.216,0.864-0.216,1.414v0.942h-3.653V68.481z"/>
			</g>
		</g>
		<g>
			<rect x="113.863" y="47.396" style="fill:#F19C35;" width="12.369" height="59.792"/>
			<rect x="113.863" y="40.696" style="fill:#FFFFFF;" width="12.369" height="7.217"/>
			<polygon style="fill:#FFFFFF;" points="126.232,107.188 113.863,107.188 115.409,131.152 124.686,131.152 			"/>
		</g>
		<g>
			<path style="fill:#19746D;" d="M97.186,107.2c0,0.539-0.435,0.978-0.975,0.978H61.612c-0.538,0-0.975-0.439-0.975-0.978l0,0
				c0-0.537,0.437-0.977,0.975-0.977h34.599C96.751,106.224,97.186,106.663,97.186,107.2L97.186,107.2z"/>
			<path style="fill:#19746D;" d="M97.186,111.828c0,0.54-0.435,0.978-0.975,0.978H61.612c-0.538,0-0.975-0.438-0.975-0.978l0,0
				c0-0.538,0.437-0.976,0.975-0.976h34.599C96.751,110.853,97.186,111.29,97.186,111.828L97.186,111.828z"/>
			<path style="fill:#19746D;" d="M97.186,116.456c0,0.539-0.435,0.977-0.975,0.977H61.612c-0.538,0-0.975-0.438-0.975-0.977l0,0
				c0-0.539,0.437-0.977,0.975-0.977h34.599C96.751,115.479,97.186,115.917,97.186,116.456L97.186,116.456z"/>
		</g>
		<g>
			<path style="fill:#19746D;" d="M74.328,94.316c0,1.055-0.856,1.913-1.913,1.913h-8.807c-1.058,0-1.915-0.858-1.915-1.913l0,0
				c0-1.06,0.857-1.916,1.915-1.916h8.807C73.472,92.4,74.328,93.257,74.328,94.316L74.328,94.316z"/>
			<path style="fill:#19746D;" d="M93.092,94.316c0,1.055-0.856,1.913-1.915,1.913h-8.806c-1.058,0-1.914-0.858-1.914-1.913l0,0
				c0-1.06,0.857-1.916,1.914-1.916h8.806C92.235,92.4,93.092,93.257,93.092,94.316L93.092,94.316z"/>
			<path style="fill:#19746D;" d="M74.508,98.233c-0.418-0.31-0.506-0.897-0.196-1.313l4.612-6.328
				c0.308-0.416,0.896-0.504,1.313-0.196l0,0c0.418,0.31,0.506,0.898,0.195,1.313l-4.611,6.329
				C75.511,98.455,74.923,98.541,74.508,98.233L74.508,98.233z"/>
		</g>
	</g>
</g>
</svg>